<svg width="250" height="250" viewBox="0 0 250 250" fill="none" xmlns="http://www.w3.org/2000/svg">
<rect width="250" height="250" fill="#0A1548"/>
<path d="M121.858 167.576C108.62 167.576 97.3784 165.824 88.1317 162.32C78.9824 158.816 72.0231 153.755 67.2537 147.136C62.4844 140.42 60.0997 132.244 60.0997 122.608C60.0997 112.972 62.4844 104.845 67.2537 98.226C72.0231 91.51 78.9824 86.4 88.1317 82.896C97.3784 79.392 108.62 77.64 121.858 77.64C122.052 77.64 122.588 77.64 123.464 77.64C124.437 77.64 125.362 77.64 126.238 77.64C127.211 77.64 127.746 77.64 127.844 77.64C140.984 77.64 152.08 79.392 161.132 82.896C170.281 86.4 177.192 91.51 181.864 98.226C186.536 104.942 188.872 113.069 188.872 122.608C188.872 132.049 186.536 140.177 181.864 146.99C177.289 153.706 170.524 158.816 161.57 162.32C152.712 165.824 141.86 167.576 129.012 167.576C128.72 167.576 128.038 167.576 126.968 167.576C125.897 167.576 124.826 167.576 123.756 167.576C122.782 167.576 122.15 167.576 121.858 167.576ZM124.048 149.326C124.34 149.326 124.729 149.326 125.216 149.326C125.702 149.326 126.043 149.326 126.238 149.326C135.192 149.326 142.59 148.353 148.43 146.406C154.367 144.362 158.796 141.393 161.716 137.5C164.636 133.509 166.096 128.497 166.096 122.462C166.096 116.427 164.587 111.463 161.57 107.57C158.552 103.677 154.124 100.805 148.284 98.956C142.541 97.0093 135.29 96.036 126.53 96.036C126.335 96.036 125.946 96.036 125.362 96.036C124.875 96.036 124.437 96.036 124.048 96.036C114.801 96.036 107.16 96.9607 101.126 98.81C95.0911 100.659 90.5651 103.579 87.5477 107.57C84.5304 111.463 83.0217 116.476 83.0217 122.608C83.0217 128.74 84.6277 133.801 87.8397 137.792C91.0517 141.685 95.6751 144.605 101.71 146.552C107.842 148.401 115.288 149.326 124.048 149.326ZM113.682 178.526V67.42H135.436V178.526H113.682Z" fill="#F5F5F5"/>
</svg>
